<svg width="119" height="34" viewBox="0 0 119 34" fill="none" xmlns="http://www.w3.org/2000/svg">
<g clip-path="url(#clip0_18_296)">
<path d="M7.37 10.68L6.71 13.73H14.45L13.74 17.11H6L4.53 23.95H0.529999L4.13 7.10001H16.51L15.75 10.67H7.37V10.68Z" fill="#4066B0"/>
<path d="M17.83 7.10001H21.52L17.95 23.95H14.26L17.83 7.10001Z" fill="#4066B0"/>
<path d="M34.51 11.74L27.39 24.43C25.59 27.65 24.19 28.62 20.41 28.62C19.7 28.62 19.34 28.6 18.99 28.57L19.61 25.73H20.79C22.02 25.73 22.75 25.04 22.97 24.12C23.14 23.34 23.04 22.46 22.9 21.47L21.55 11.74H25.43L25.6 13.47C25.77 15.84 25.98 18.35 26.07 21.11C27.32 18.32 28.51 15.83 29.71 13.49L30.63 11.74H34.51Z" fill="#4066B0"/>
<path d="M50.01 15.53C50.01 20.57 47.17 23.95 41.4 23.95H34.49V7.10001H41.4C47.17 7.10001 50.01 10.49 50.01 15.53ZM45.85 15.53C45.85 12.03 44.07 10.49 41.33 10.49H38.49V20.57H41.33C44.07 20.57 45.85 19.03 45.85 15.53Z" fill="#4066B0"/>
<path d="M59.5 11.6V14.96H58.55C56.49 14.96 55.31 15.98 55.31 18.27V23.95H51.62V11.74H55.22V14.01C55.74 12.5 56.88 11.55 58.7 11.55C58.98 11.55 59.24 11.58 59.5 11.6Z" fill="#4066B0"/>
<path d="M72.61 18.94H63.57C63.83 20.69 64.92 21.52 66.36 21.52C67.59 21.52 68.4 21.02 68.82 20.15H72.32C71.66 22.73 69.29 24.24 66.36 24.24C62.57 24.24 60.02 21.73 60.02 17.85C60.02 13.99 62.5 11.46 66.31 11.46C70.12 11.46 72.6 14.09 72.6 18.21V18.94H72.61ZM63.6 16.59H69C68.74 15.08 67.77 14.18 66.28 14.18C64.92 14.18 63.88 14.89 63.6 16.59Z" fill="#4066B0"/>
<path d="M82.24 23.95C82.07 23.64 81.96 23.12 81.93 22.58C81.15 23.62 79.82 24.24 78.03 24.24C75.47 24.24 73.58 22.94 73.58 20.5C73.58 18.39 74.83 17 78.36 16.69L80.28 16.52C81.32 16.4 81.87 16.09 81.87 15.31C81.87 14.58 81.47 14.08 80 14.08C78.56 14.08 77.96 14.44 77.85 15.69H74.18C74.37 12.99 76.1 11.45 80.02 11.45C83.85 11.45 85.46 12.89 85.46 15.21V21.69C85.46 22.59 85.63 23.46 85.96 23.94H82.24V23.95ZM81.87 19.15V18.25C81.61 18.53 81.21 18.65 80.64 18.72L79.12 18.89C77.87 19.03 77.34 19.51 77.34 20.36C77.34 21.21 77.98 21.76 79.14 21.76C80.56 21.75 81.87 21.07 81.87 19.15Z" fill="#4066B0"/>
<path d="M106.36 16.03V23.96H102.67V16.67C102.67 15.34 102.15 14.61 100.85 14.61C99.74 14.61 98.74 15.34 98.74 17.21V23.96H95.05V16.67C95.05 15.34 94.53 14.61 93.23 14.61C92.12 14.61 91.1 15.34 91.1 17.21V23.96H87.41V11.74H91.01V13.47C91.79 12.31 92.88 11.46 94.49 11.46C96.26 11.46 97.61 12.24 98.28 13.66C99.11 12.43 100.41 11.46 102.09 11.46C104.7 11.46 106.36 13.09 106.36 16.03Z" fill="#4066B0"/>
<path d="M77.16 33.12H75.29V32.06H73.18L72.54 33.12H70.3L75.31 25.82H77.15V33.12H77.16ZM75.29 30.59V28.57H75.27L74.07 30.59H75.29Z" fill="#4066B0"/>
<path d="M79.91 27.07H78.27V25.83H79.91V27.07ZM79.91 33.12H78.27V27.64H79.91V33.12Z" fill="#4066B0"/>
<path d="M83.87 29.11C83.45 29.12 83.13 29.2 82.91 29.33C82.69 29.46 82.58 29.73 82.58 30.11V33.12H80.94V27.64H82.48V28.22H82.5C82.76 27.71 83.22 27.45 83.87 27.45V29.11Z" fill="#4066B0"/>
<path d="M86.23 33.12H84.59V25.82H86.23V33.12Z" fill="#4066B0"/>
<path d="M88.92 27.07H87.28V25.83H88.92V27.07ZM88.92 33.12H87.28V27.64H88.92V33.12Z" fill="#4066B0"/>
<path d="M95.03 33.12H93.39V30.13C93.39 29.77 93.33 29.49 93.21 29.29C93.09 29.09 92.87 29 92.54 29C92.18 29 91.94 29.1 91.8 29.3C91.66 29.5 91.6 29.78 91.6 30.14V33.12H89.96V27.64H91.49V28.22H91.51C91.83 27.71 92.32 27.45 93 27.45C93.24 27.45 93.49 27.49 93.75 27.58C94.01 27.67 94.23 27.78 94.4 27.93C94.82 28.28 95.03 28.87 95.03 29.7V33.12Z" fill="#4066B0"/>
<path d="M101.53 30.45C101.53 30.61 101.52 30.75 101.49 30.88H97.39C97.44 31.2 97.58 31.45 97.82 31.63C98.06 31.81 98.34 31.91 98.67 31.91C99.06 31.91 99.4 31.74 99.67 31.4H101.35C101.11 31.97 100.75 32.42 100.28 32.77C99.81 33.12 99.28 33.29 98.68 33.29C97.88 33.29 97.19 33.01 96.63 32.44C96.07 31.87 95.78 31.19 95.78 30.39C95.78 29.59 96.06 28.9 96.62 28.32C97.18 27.74 97.86 27.45 98.65 27.45C99.48 27.45 100.17 27.74 100.72 28.32C101.25 28.91 101.53 29.62 101.53 30.45ZM99.89 29.78C99.82 29.49 99.68 29.26 99.45 29.09C99.22 28.92 98.95 28.84 98.65 28.84C98.35 28.84 98.08 28.92 97.85 29.09C97.62 29.26 97.47 29.49 97.41 29.78H99.89Z" fill="#4066B0"/>
<path d="M106.4 31.45C106.4 32.04 106.18 32.49 105.74 32.82C105.3 33.15 104.78 33.31 104.17 33.31C103.57 33.31 103.06 33.15 102.65 32.84C102.23 32.52 102 32.08 101.94 31.5H103.57C103.6 31.66 103.67 31.79 103.78 31.88C103.89 31.96 104.03 32.01 104.2 32.01C104.34 32.01 104.47 31.97 104.59 31.9C104.71 31.82 104.77 31.72 104.77 31.59C104.77 31.54 104.76 31.49 104.75 31.44C104.73 31.39 104.71 31.35 104.68 31.31C104.65 31.27 104.62 31.24 104.59 31.21C104.56 31.18 104.52 31.16 104.46 31.13C104.4 31.1 104.36 31.08 104.33 31.07C104.3 31.06 104.25 31.04 104.18 31.01C104.11 30.98 104.07 30.97 104.05 30.96C103.73 30.85 103.5 30.77 103.34 30.71C102.47 30.39 102.04 29.92 102.04 29.28C102.04 28.73 102.25 28.3 102.68 27.97C103.1 27.64 103.6 27.48 104.16 27.48C104.73 27.48 105.21 27.63 105.6 27.92C105.99 28.22 106.21 28.64 106.26 29.2H104.65C104.64 28.92 104.47 28.78 104.14 28.78C104.02 28.78 103.91 28.81 103.82 28.88C103.72 28.95 103.68 29.04 103.68 29.15C103.68 29.28 103.75 29.39 103.88 29.49C104.01 29.58 104.18 29.65 104.39 29.7C104.59 29.75 104.82 29.82 105.06 29.9C105.3 29.99 105.52 30.08 105.73 30.19C105.93 30.3 106.1 30.46 106.24 30.68C106.33 30.88 106.4 31.14 106.4 31.45Z" fill="#4066B0"/>
<path d="M109.56 7.74C109.91 7.79 110.24 8.12 110.29 8.47L111.89 19.3L111.94 19.31L113.85 17.39C113.95 17.29 114 17.13 113.97 16.96L112.4 6.34C112.35 5.99 112.02 5.66 111.67 5.61L101.19 4.1C101.02 4.08 100.87 4.12 100.76 4.22L98.81 6.18L109.56 7.74Z" fill="#FD7E14"/>
<path d="M113.52 3.77999C113.87 3.82999 114.2 4.15999 114.25 4.50999L115.85 15.34L115.9 15.35L117.81 13.43C117.91 13.33 117.96 13.17 117.93 13L116.37 2.39999C116.32 2.04999 115.99 1.71999 115.64 1.66999L105.16 0.139995C104.99 0.119995 104.84 0.159994 104.73 0.259994L102.78 2.21999L113.52 3.77999Z" fill="#FD7E14"/>
</g>
<defs>
<clipPath id="clip0_18_296">
<rect width="117.53" height="33.31" fill="white" transform="translate(0.529999)"/>
</clipPath>
</defs>
</svg>
